<svg width="70" height="223" viewBox="0 0 70 223" fill="none" xmlns="http://www.w3.org/2000/svg">
<mask id="path-1-outside-1_16_7" maskUnits="userSpaceOnUse" x="-1" y="-1" width="72" height="225" fill="black">
<rect fill="white" x="-1" y="-1" width="72" height="225"/>
<path d="M47.4984 205H69.9984V223H42.3984C36.3984 223 30.8984 221.3 25.8984 217.9C20.8984 214.5 18.3984 208.2 18.3984 199V133.3C18.3984 128.5 17.0984 125 14.4984 122.8C12.0984 120.4 7.39844 119.2 0.398438 119.2V104.2C7.39844 104.2 12.0984 103.1 14.4984 100.9C17.0984 98.5 18.3984 94.9 18.3984 90.1V24.4C18.3984 15.2 20.8984 8.9 25.8984 5.49999C30.8984 2.09999 36.3984 0.399988 42.3984 0.399988H69.9984V18.4H47.4984C44.0984 18.4 42.3984 20.1 42.3984 23.5V93.4C42.3984 98.4 41.1984 102.6 38.7984 106C36.3984 109.2 32.6984 110.8 27.6984 110.8V112.6C32.6984 112.6 36.3984 114.3 38.7984 117.7C41.1984 120.9 42.3984 125 42.3984 130V199.9C42.3984 203.3 44.0984 205 47.4984 205Z"/>
</mask>
<path d="M47.4984 205H69.9984V223H42.3984C36.3984 223 30.8984 221.3 25.8984 217.9C20.8984 214.5 18.3984 208.2 18.3984 199V133.3C18.3984 128.5 17.0984 125 14.4984 122.8C12.0984 120.4 7.39844 119.2 0.398438 119.2V104.2C7.39844 104.2 12.0984 103.1 14.4984 100.9C17.0984 98.5 18.3984 94.9 18.3984 90.1V24.4C18.3984 15.2 20.8984 8.9 25.8984 5.49999C30.8984 2.09999 36.3984 0.399988 42.3984 0.399988H69.9984V18.4H47.4984C44.0984 18.4 42.3984 20.1 42.3984 23.5V93.4C42.3984 98.4 41.1984 102.6 38.7984 106C36.3984 109.2 32.6984 110.8 27.6984 110.8V112.6C32.6984 112.6 36.3984 114.3 38.7984 117.7C41.1984 120.9 42.3984 125 42.3984 130V199.9C42.3984 203.3 44.0984 205 47.4984 205Z" fill="#EBE7E4"/>
<path d="M69.9984 205H70.9984V204H69.9984V205ZM69.9984 223V224H70.9984V223H69.9984ZM14.4984 122.8L13.7913 123.507L13.8207 123.537L13.8525 123.563L14.4984 122.8ZM0.398438 119.2H-0.601562V120.2H0.398438V119.2ZM0.398438 104.2V103.2H-0.601562V104.2H0.398438ZM14.4984 100.9L15.1742 101.637L15.1767 101.635L14.4984 100.9ZM69.9984 0.399986H70.9984V-0.600014H69.9984V0.399986ZM69.9984 18.4V19.4H70.9984V18.4H69.9984ZM38.7984 106L39.5984 106.6L39.6071 106.588L39.6154 106.577L38.7984 106ZM27.6984 110.8V109.8H26.6984V110.8H27.6984ZM27.6984 112.6H26.6984V113.6H27.6984V112.6ZM38.7984 117.7L37.9815 118.277L37.9898 118.288L37.9984 118.3L38.7984 117.7ZM47.4984 206H69.9984V204H47.4984V206ZM68.9984 205V223H70.9984V205H68.9984ZM69.9984 222H42.3984V224H69.9984V222ZM42.3984 222C36.6006 222 31.2963 220.361 26.4607 217.073L25.3361 218.727C30.5006 222.239 36.1962 224 42.3984 224V222ZM26.4607 217.073C21.8563 213.942 19.3984 208.05 19.3984 199H17.3984C17.3984 208.35 19.9406 215.058 25.3361 218.727L26.4607 217.073ZM19.3984 199V133.3H17.3984V199H19.3984ZM19.3984 133.3C19.3984 128.331 18.0496 124.495 15.1444 122.037L13.8525 123.563C16.1473 125.505 17.3984 128.669 17.3984 133.3H19.3984ZM15.2055 122.093C13.8354 120.723 11.8742 119.757 9.42082 119.131C6.96301 118.504 3.94848 118.2 0.398438 118.2V120.2C3.84839 120.2 6.68387 120.496 8.92606 121.069C11.1727 121.643 12.7614 122.477 13.7913 123.507L15.2055 122.093ZM1.39844 119.2V104.2H-0.601562V119.2H1.39844ZM0.398438 105.2C3.94408 105.2 6.95145 104.922 9.40132 104.349C11.8436 103.777 13.801 102.896 15.1742 101.637L13.8227 100.163C12.7958 101.104 11.2033 101.873 8.94555 102.401C6.69543 102.928 3.8528 103.2 0.398438 103.2V105.2ZM15.1767 101.635C18.0472 98.9852 19.3984 95.0756 19.3984 90.1H17.3984C17.3984 94.7244 16.1497 98.0148 13.8202 100.165L15.1767 101.635ZM19.3984 90.1V24.4H17.3984V90.1H19.3984ZM19.3984 24.4C19.3984 15.35 21.8563 9.45794 26.4607 6.32692L25.3361 4.67307C19.9406 8.34206 17.3984 15.05 17.3984 24.4H19.3984ZM26.4607 6.32692C31.2963 3.03876 36.6006 1.39999 42.3984 1.39999V-0.600014C36.1962 -0.600014 30.5006 1.16122 25.3361 4.67307L26.4607 6.32692ZM42.3984 1.39999H69.9984V-0.600014H42.3984V1.39999ZM68.9984 0.399986V18.4H70.9984V0.399986H68.9984ZM69.9984 17.4H47.4984V19.4H69.9984V17.4ZM47.4984 17.4C45.6443 17.4 44.07 17.8642 42.9663 18.9679C41.8627 20.0716 41.3984 21.6459 41.3984 23.5H43.3984C43.3984 21.9541 43.7842 20.9784 44.3805 20.3821C44.9769 19.7858 45.9526 19.4 47.4984 19.4V17.4ZM41.3984 23.5V93.4H43.3984V23.5H41.3984ZM41.3984 93.4C41.3984 98.2359 40.24 102.224 37.9815 105.423L39.6154 106.577C42.1568 102.976 43.3984 98.5641 43.3984 93.4H41.3984ZM37.9984 105.4C35.8342 108.286 32.471 109.8 27.6984 109.8V111.8C32.9259 111.8 36.9627 110.114 39.5984 106.6L37.9984 105.4ZM26.6984 110.8V112.6H28.6984V110.8H26.6984ZM27.6984 113.6C32.4479 113.6 35.808 115.198 37.9815 118.277L39.6154 117.123C36.9889 113.402 32.949 111.6 27.6984 111.6V113.6ZM37.9984 118.3C40.2391 121.288 41.3984 125.161 41.3984 130H43.3984C43.3984 124.839 42.1577 120.512 39.5984 117.1L37.9984 118.3ZM41.3984 130V199.9H43.3984V130H41.3984ZM41.3984 199.9C41.3984 201.754 41.8627 203.328 42.9663 204.432C44.07 205.536 45.6443 206 47.4984 206V204C45.9526 204 44.9769 203.614 44.3805 203.018C43.7842 202.422 43.3984 201.446 43.3984 199.9H41.3984Z" fill="#AA6F73" mask="url(#path-1-outside-1_16_7)"/>
</svg>
